<?xml version="1.0" standalone="no"?>
<!DOCTYPE svg PUBLIC "-//W3C//DTD SVG 1.1//EN" "http://www.w3.org/Graphics/SVG/1.1/DTD/svg11.dtd" >
<svg xmlns="http://www.w3.org/2000/svg">
  <metadata>Created by iconfont</metadata>
  <defs>
  <font id="im-icon-font" horiz-adv-x="1024">
    <font-face
      font-family="im-icon-font"
      font-weight="400"
      font-stretch="normal"
      units-per-em="1024"
      ascent="896"
      descent="-128"
    />
      <missing-glyph />
      
      <glyph glyph-name="a-yonghu1" unicode="&#59047;" d="M408.704 381.18399999999997C352.192 371.52 224 320 164.608 256.384c-68.608-67.584-74.24-184.512-74.24-225.088C90.432-75.20000000000005 279.936-64 512-64c232.128 0 419.008-11.2 419.008 95.296 0.128 42.816-3.008 157.504-81.92 230.016C800 320 672.192 374.592 612.48 382.592 608 384 545.472 390.592 512 390.4c-33.472-0.192-96-6.4-103.296-9.216zM560.256 388.16a288 288 0 0 1-5.12-452.288h17.536c203.136-0.896 358.336-1.6 358.336 95.424 0.128 42.816-3.008 157.504-81.92 230.016C800 320 672.192 374.592 612.48 382.592a625.792 625.792 0 0 1-52.16 5.568zM665.984 369.08799999999997A288 288 0 0 1 682.88-64c146.432 2.24 248.064 16.768 248.064 95.296 0.128 42.816-3.008 157.504-81.92 230.016-37.12 44.416-119.424 86.464-183.104 107.776zM710.912 626.496a200.96 200.96 0 0 0-33.728-111.232 199.744 199.744 0 0 0-166.464-88.96 200.128 200.128 0 0 0-19.648 399.424 200.128 200.128 0 0 0 219.84-199.232z"  horiz-adv-x="1152" />
      
      <glyph glyph-name="pindao" unicode="&#59046;" d="M568.96 113.91999999999996h241.728c70.656 0 128 59.072 128 131.904V657.472c0 72.832-57.344 131.84-128 131.84H213.312c-70.656 0-128-59.008-128-131.84v-411.648c0-72.832 57.344-131.84 128-131.84h50.048l16.32-98.688c4.992-29.888 37.12-45.824 62.848-31.04l226.368 129.728zM810.688 113.91999999999996H568.896l-81.728-46.784a288 288 0 1 0 451.52 329.6v-150.912c0-72.832-57.344-131.84-128-131.84zM938.688 540.4159999999999a288 288 0 0 1-368.128-426.432h240.128c70.656 0 128 59.008 128 131.84V540.4159999999999zM484.672 645.952a42.688 42.688 0 0 1-54.656-25.472l-16.448-45.248h-50.88a42.688 42.688 0 0 1 0-85.376h19.84L351.36 404.544h-38.144a42.688 42.688 0 0 1 0-85.312h7.04l-7.04-19.52a42.688 42.688 0 1 1 80.128-29.184l17.728 48.64h101.312l-7.104-19.456a42.688 42.688 0 1 1 80.192-29.184l17.728 48.64h51.328a42.688 42.688 0 1 1 0 85.376h-20.288l31.04 85.312H704a42.688 42.688 0 1 1 0 85.376h-7.552l5.76 16a42.688 42.688 0 0 1-80.128 29.184l-16.448-45.184H504.32l5.888 16a42.688 42.688 0 0 1-25.536 54.72z m89.856-156.096l-31.04-85.312H442.24l31.04 85.312h101.248z"  horiz-adv-x="1088" />
      
      <glyph glyph-name="a-biaoqing1" unicode="&#59034;" d="M918.588235 384a406.588235 406.588235 0 1 0-813.17647 0 406.588235 406.588235 0 0 0 813.17647 0z m-78.305882 0c0 90.654118-32.045176 168.056471-96.135529 232.146824S602.654118 712.282353 512 712.282353s-168.056471-32.045176-232.146824-96.135529S183.717647 474.654118 183.717647 384s32.045176-168.056471 96.135529-232.146824S421.345882 55.717647 512 55.717647s168.056471 32.045176 232.146824 96.135529S840.282353 293.345882 840.282353 384zM405.082353 305.573647a40.116706 40.116706 0 0 0 2.288941-4.035765c19.395765-38.731294 54.211765-58.066824 104.628706-58.066823 50.356706 0 85.232941 19.335529 104.628706 58.066823a40.176941 40.176941 0 1 0 71.860706-35.900235c-34.213647-68.306824-93.003294-102.520471-176.489412-102.520471-83.486118 0-142.275765 34.213647-176.489412 102.520471a40.176941 40.176941 0 0 0 69.571765 39.936zM652.528941 564.705882a40.176941 40.176941 0 0 1-40.116706-40.176941V444.235294A40.176941 40.176941 0 0 1 692.705882 444.235294V524.528941a40.176941 40.176941 0 0 1-40.176941 40.176941zM371.471059 564.705882A40.176941 40.176941 0 0 1 331.294118 524.528941V444.235294a40.176941 40.176941 0 0 1 80.293647 0V524.528941a40.176941 40.176941 0 0 1-40.116706 40.176941z"  horiz-adv-x="1024" />
      
      <glyph glyph-name="fankui" unicode="&#59035;" d="M565.549176 129.807059h227.568942c66.499765 0 120.470588 55.597176 120.470588 124.144941V641.385412c0 68.547765-53.970824 124.084706-120.470588 124.084706H230.881882c-66.499765 0-120.470588-55.536941-120.470588-124.084706v-387.433412c0-68.547765 53.970824-124.084706 120.470588-124.084706h47.104l15.36-92.882823c4.698353-28.129882 34.936471-43.128471 59.151059-29.214118l213.052235 122.096941z m-374.784 124.144941V641.385412c0 11.444706 3.915294 21.142588 11.745883 29.214117a38.128941 38.128941 0 0 0 28.370823 12.16753h562.236236c11.083294 0 20.48-4.096 28.370823-12.16753 7.830588-8.071529 11.745882-17.829647 11.745883-29.214117v-387.433412c0-11.444706-3.915294-21.142588-11.745883-29.214118a38.128941 38.128941 0 0 0-28.370823-12.107294H565.549176c-13.673412 0-27.105882-3.614118-39.03247-10.480941l-163.538824-93.665882-5.782588 35.237647c-6.625882 39.755294-40.056471 68.848941-79.209412 68.848941h-47.104a38.128941 38.128941 0 0 0-28.370823 12.167529 40.478118 40.478118 0 0 0-11.745883 29.214118zM545.008941 566.031059a40.176941 40.176941 0 0 1-80.293647 0v-120.470588a40.176941 40.176941 0 0 1 80.293647 0v120.470588zM545.008941 325.752471a40.176941 40.176941 0 1 1-80.293647 0 40.176941 40.176941 0 0 1 80.293647 0z"  horiz-adv-x="1024" />
      
      <glyph glyph-name="chengyuan-xuanzhong" unicode="&#59036;" d="M230.881882 604.882824c0 49.874824 17.648941 92.461176 52.946824 127.698823a174.08 174.08 0 0 0 127.759059 53.007059 174.08 174.08 0 0 0 127.819294-53.007059 174.08 174.08 0 0 0 52.886588-127.698823 174.08 174.08 0 0 0-52.886588-127.819295 174.08 174.08 0 0 0-127.819294-52.886588 174.08 174.08 0 0 0-127.759059 52.886588 174.08 174.08 0 0 0-52.946824 127.819295zM112.218353 234.194824A196.005647 196.005647 0 0 0 199.981176 321.957647c20.48 10.420706 46.682353 16.926118 78.72753 19.576471 18.974118 1.566118 48.549647 2.288941 88.726588 2.349176h88.365177c53.549176 0 83.124706-0.783059 88.666353-2.409412 32.045176-2.590118 58.307765-9.035294 78.787764-19.516235a196.005647 196.005647 0 0 0 87.702588-87.762823c10.420706-20.48 16.986353-46.682353 19.576471-78.72753 1.566118-18.974118 2.349176-55.175529 2.349177-108.784941v-24.094118a40.176941 40.176941 0 0 0-40.176942-40.116706H130.469647A40.176941 40.176941 0 0 0 90.352941 22.588235v24.094118c0 53.609412 0.722824 89.810824 2.288941 108.784941 2.650353 32.045176 9.155765 58.307765 19.576471 78.72753zM905.155765 205.221647a317.801412 317.801412 0 0 1-70.354824 139.264 40.176941 40.176941 0 1 1-60.416-52.946823c25.479529-29.033412 43.008-63.909647 52.645647-104.688942 10.119529-43.008 12.227765-96.075294 6.384941-159.141647a40.237176 40.237176 0 0 1 39.996236-43.851294 40.176941 40.176941 0 0 1 39.996235 36.442353v0.060235c6.625882 71.740235 3.915294 133.360941-8.252235 184.922353zM624.760471 728.244706c0-6.987294 1.807059-13.854118 5.300705-19.937882 22.046118-38.671059 33.129412-74.450824 33.129412-107.218824 0-33.249882-11.264-70.836706-33.731764-112.880941a40.176941 40.176941 0 1 1 70.836705-37.827765c28.792471 53.790118 43.188706 104.086588 43.188706 150.708706 0 46.983529-14.576941 96.015059-43.730823 147.034353a40.176941 40.176941 0 0 1-74.992941-19.877647z"  horiz-adv-x="1024" />
      
      <glyph glyph-name="tianjia" unicode="&#59037;" d="M472.615385 423.384615V738.461538a39.384615 39.384615 0 0 0 78.76923 0v-315.076923h315.076923a39.384615 39.384615 0 0 0 0-78.76923h-315.076923v-315.076923a39.384615 39.384615 0 0 0-78.76923 0V344.615385h-315.076923a39.384615 39.384615 0 0 0 0 78.76923h315.076923z"  horiz-adv-x="1024" />
      
      <glyph glyph-name="a-shixiangku2" unicode="&#59038;" d="M190.765176-17.588706a80.293647 80.293647 0 0 0-80.353882 80.353882V705.234824c0 44.393412 35.960471 80.353882 80.353882 80.353882H632.470588c44.333176 0 80.293647-35.960471 80.293647-80.353882v-722.82353H190.765176zM632.470588 123.000471V644.999529a60.235294 60.235294 0 0 1-60.235294 60.235295H251.000471a60.235294 60.235294 0 0 1-60.235295-60.235295v-521.999058a60.235294 60.235294 0 0 1 60.235295-60.235295H572.235294a60.235294 60.235294 0 0 1 60.235294 60.235295zM632.470588 584.764235h200.764236c44.393412 0 80.353882-35.960471 80.353882-80.293647v-441.705412c0-44.393412-35.960471-80.353882-80.353882-80.353882H632.470588v602.352941zM712.764235 504.470588v-441.705412h60.235294a60.235294 60.235294 0 0 1 60.235295 60.235295V444.235294a60.235294 60.235294 0 0 1-60.235295 60.235294h-60.235294zM471.823059 243.471059h-120.470588a40.176941 40.176941 0 0 1 0-80.353883h120.470588a40.176941 40.176941 0 0 1 0 80.353883z"  horiz-adv-x="1024" />
      
      <glyph glyph-name="chehui" unicode="&#59039;" d="M397.131294 702.524235a40.176941 40.176941 0 1 1-51.380706 61.680941l-240.941176-200.764235a40.237176 40.237176 0 0 1 0-61.680941l240.941176-200.824471a40.176941 40.176941 0 1 1 51.380706 61.741177L241.423059 492.423529h411.105882c55.416471 0 102.821647-19.576471 141.974588-58.789647 39.213176-39.213176 58.849882-86.558118 58.849883-141.974588 0-55.416471-19.636706-102.821647-58.849883-141.974588-39.152941-39.213176-86.497882-58.849882-141.974588-58.849882H331.294118A40.176941 40.176941 0 0 1 331.294118 10.541176h321.234823c77.643294 0 143.902118 27.467294 198.776471 82.341648S933.647059 214.016 933.647059 291.659294c0 77.583059-27.467294 143.841882-82.341647 198.776471-54.874353 54.814118-121.133176 82.281412-198.776471 82.281411H241.423059l155.708235 129.807059z"  horiz-adv-x="1024" />
      
      <glyph glyph-name="dachuangkou" unicode="&#59040;" d="M612.412235 745.411765h180.705883a120.470588 120.470588 0 0 0 120.470588-120.470589v-140.528941h-80.353882v120.470589a60.235294 60.235294 0 0 1-60.235295 60.235294H612.412235V745.411765z m-381.530353 0h180.705883v-80.293647H251.000471a60.235294 60.235294 0 0 1-60.235295-60.235294v-120.470589H110.411294V624.941176a120.470588 120.470588 0 0 0 120.470588 120.470589z m602.352942-582.294589v120.470589h80.353882V143.058824a120.470588 120.470588 0 0 0-120.470588-120.470589h-180.705883v80.293647h160.587294a60.235294 60.235294 0 0 1 60.235295 60.235294z m-582.234353-60.235294h160.587294V22.588235h-180.705883a120.470588 120.470588 0 0 0-120.470588 120.470589v140.528941h80.353882v-120.470589a60.235294 60.235294 0 0 1 60.235295-60.235294z"  horiz-adv-x="1024" />
      
      <glyph glyph-name="kuaijiehuifu" unicode="&#59041;" d="M565.549176 129.807059h227.568942c66.499765 0 120.470588 55.597176 120.470588 124.205176v387.312941c0 68.608-53.970824 124.144941-120.470588 124.144942H230.881882c-66.499765 0-120.470588-55.536941-120.470588-124.084706v-387.373177c0-68.608 53.970824-124.144941 120.470588-124.144941h47.104l15.36-92.882823c4.638118-28.129882 34.936471-43.068235 59.090824-29.214118l213.11247 122.096941z m-374.784 124.205176v387.312941c0 11.444706 3.915294 21.202824 11.745883 29.334589a38.128941 38.128941 0 0 0 28.370823 12.047059h562.236236c11.083294 0 20.48-3.975529 28.370823-12.047059 7.830588-8.131765 11.745882-17.889882 11.745883-29.274353v-387.373177c0-11.444706-3.915294-21.202824-11.745883-29.274353a38.128941 38.128941 0 0 0-28.370823-12.107294H565.549176c-13.673412 0-27.105882-3.614118-39.03247-10.480941l-163.538824-93.665882-5.782588 35.297882c-6.625882 39.755294-40.056471 68.848941-79.209412 68.848941h-47.104a38.128941 38.128941 0 0 0-28.370823 12.047059 40.478118 40.478118 0 0 0-11.745883 29.274353zM552.176941 484.412235H351.352471a40.176941 40.176941 0 1 1 0-80.353882h200.82447a40.176941 40.176941 0 0 1 0 80.293647z"  horiz-adv-x="1024" />
      
      <glyph glyph-name="xunlian" unicode="&#59042;" d="M130.529882 236.363294V531.5764710000001a96.376471 96.376471 0 0 0 44.875294 81.498353l285.153883 180.103529a96.376471 96.376471 0 0 0 102.881882 0l285.153883-180.103529a96.376471 96.376471 0 0 0 44.875294-81.498353v-295.273412a96.376471 96.376471 0 0 0-44.875294-81.498353l-285.153883-180.10353a96.376471 96.376471 0 0 0-102.881882 0l-285.153883 180.10353a96.376471 96.376471 0 0 0-44.875294 81.498353z m80.293647 0c0-5.903059 2.529882-10.480941 7.469177-13.613176l285.153882-180.10353c5.722353-3.614118 11.444706-3.614118 17.106824 0l285.153882 180.10353a15.119059 15.119059 0 0 1 7.469177 13.613176V531.5764710000001a15.119059 15.119059 0 0 1-7.469177 13.613176l-285.153882 180.103529a14.938353 14.938353 0 0 1-17.106824 0l-285.153882-180.103529A15.119059 15.119059 0 0 1 210.823529 531.5764710000001v-295.273412zM391.529412 464.293647a40.176941 40.176941 0 0 1-80.293647 0V263.529412A40.176941 40.176941 0 1 1 391.529412 263.529412V464.293647zM552.176941 544.6475290000001a40.176941 40.176941 0 1 1-80.353882 0V263.529412a40.176941 40.176941 0 0 1 80.353882 0V544.6475290000001zM712.764235 384A40.176941 40.176941 0 1 1 632.470588 384v-120.470588a40.176941 40.176941 0 0 1 80.293647 0v120.470588z"  horiz-adv-x="1024" />
      
      <glyph glyph-name="tianjia-waiyuan" unicode="&#59043;" d="M512 727.341176a343.341176 343.341176 0 1 1 0-686.682352A343.341176 343.341176 0 0 1 512 727.341176zM90.352941 384a421.647059 421.647059 0 1 0 843.294118 0 421.647059 421.647059 0 0 0-843.294118 0zM471.823059 424.176941V564.705882a40.176941 40.176941 0 1 0 80.353882 0v-140.528941H692.705882a40.176941 40.176941 0 0 0 0-80.353882H552.176941V203.294118a40.176941 40.176941 0 1 0-80.293647 0V343.823059H331.294118a40.176941 40.176941 0 0 0 0 80.353882h140.528941z"  horiz-adv-x="1024" />
      
      <glyph glyph-name="guanbi" unicode="&#59044;" d="M258.645333 629.290667c11.093333 11.093333 29.141333 11.093333 40.234667 0l442.496-442.496a28.458667 28.458667 0 1 0-40.234667-40.234667L258.688 589.056a28.458667 28.458667 0 0 0 0 40.234667zM741.376 637.312c11.093333-11.093333 11.093333-29.098667 0-40.192L298.922667 154.624a28.458667 28.458667 0 1 0-40.234667 40.234667l442.453333 442.453333c11.093333 11.093333 29.141333 11.093333 40.234667 0z"  horiz-adv-x="1024" />
      
      <glyph glyph-name="fuzhi" unicode="&#59045;" d="M752.941176 544.647529c0 44.333176-35.960471 80.293647-80.293647 80.293647h-481.882353c-44.393412 0-80.353882-35.960471-80.353882-80.293647v-481.882353c0-44.393412 35.960471-80.353882 80.353882-80.353882h481.882353c44.333176 0 80.293647 35.960471 80.293647 80.353882v481.882353z m-562.176 0h481.882353v-481.882353h-481.882353v481.882353zM793.118118 785.588706a120.470588 120.470588 0 0 0 120.470588-120.470588v-441.765647a40.176941 40.176941 0 1 0-80.353882 0V665.118118a40.176941 40.176941 0 0 1-40.116706 40.116706H351.352471a40.176941 40.176941 0 1 0 0 80.353882h441.765647zM552.176941 343.823059h-240.941176a40.176941 40.176941 0 1 1 0-80.293647h240.941176a40.176941 40.176941 0 0 1 0 80.293647zM471.823059 183.235765v240.941176a40.176941 40.176941 0 1 1-80.293647 0v-240.941176a40.176941 40.176941 0 1 1 80.293647 0z"  horiz-adv-x="1024" />
      
      <glyph glyph-name="ocr" unicode="&#59031;" d="M387.975529 681.140706H291.117176c-21.082353 0-39.032471-7.469176-53.970823-22.287059-14.878118-14.938353-22.287059-32.888471-22.287059-53.970823v-96.858353a38.128941 38.128941 0 0 0-76.318118 0V604.882824c0 42.164706 14.938353 78.064941 44.694589 107.821176A147.034353 147.034353 0 0 0 291.117176 757.458824h96.858353a38.128941 38.128941 0 0 0 0-76.318118zM636.084706 757.458824H740.894118c42.164706 0 78.125176-14.938353 107.881411-44.694589a146.974118 146.974118 0 0 0 44.694589-107.881411v-200.824471a60.235294 60.235294 0 0 0-60.235294-60.235294h-16.082824V604.882824c0 21.082353-7.408941 39.032471-22.287059 53.910588a73.426824 73.426824 0 0 1-53.970823 22.287059H636.084706a38.128941 38.128941 0 1 0 0 76.378353zM388.035765 2.529882H291.117176a146.974118 146.974118 0 0 0-107.821176 44.694589 146.974118 146.974118 0 0 0-44.754824 107.821176v104.929882a38.128941 38.128941 0 0 0 76.318118 0V155.105882c0-21.082353 7.469176-39.032471 22.287059-53.970823 14.938353-14.878118 32.888471-22.287059 53.970823-22.287059h96.918589a38.128941 38.128941 0 1 0 0-76.318118zM632.470588 584.764235H391.529412A40.176941 40.176941 0 1 1 391.529412 504.470588h240.941176a40.176941 40.176941 0 1 1 0 80.293647zM351.352471 384c0-22.166588 18.010353-40.176941 40.176941-40.176941h441.705412a60.235294 60.235294 0 0 1 60.235294 60.235294v20.118588H391.529412a40.176941 40.176941 0 0 1-40.176941-40.176941zM632.470588 263.529412H391.529412a40.176941 40.176941 0 0 1 0-80.293647h240.941176a40.176941 40.176941 0 1 1 0 80.293647zM809.140706 6.144a80.353882 80.353882 0 1 1 0 160.647529 80.353882 80.353882 0 0 1 0-160.647529z"  horiz-adv-x="1024" />
      
      <glyph glyph-name="gengduo" unicode="&#59032;" d="M793.118118 303.706353a80.173176 80.173176 0 0 0-76.860236 103.604706 80.896 80.896 0 0 0 38.972236 47.525647 81.438118 81.438118 0 0 0 37.888 9.456941 80.414118 80.414118 0 0 0 0-160.587294zM512 303.706353a80.293647 80.293647 0 1 0 0 160.527059 80.293647 80.293647 0 0 0 0-160.527059zM230.881882 464.293647a80.353882 80.353882 0 1 0 0-160.647529 80.353882 80.353882 0 0 0 0 160.647529z"  horiz-adv-x="1024" />
      
      <glyph glyph-name="quxiaoguanliyuan" unicode="&#59033;" d="M255.397647 604.882824c0 49.874824 17.588706 92.461176 52.886588 127.698823a174.08 174.08 0 0 0 127.759059 53.007059 174.08 174.08 0 0 0 127.819294-53.007059 174.08 174.08 0 0 0 52.886588-127.698823 174.08 174.08 0 0 0-52.886588-127.819295 174.08 174.08 0 0 0-127.819294-52.886588 174.08 174.08 0 0 0-127.698823 52.886588 174.08 174.08 0 0 0-53.007059 127.819295z m80.293647 0c0-27.708235 9.758118-51.440941 29.394824-71.017412 19.576471-19.576471 43.248941-29.394824 70.957176-29.394824 27.708235 0 51.380706 9.818353 71.017412 29.394824 19.576471 19.576471 29.394824 43.248941 29.394823 70.957176 0 27.708235-9.818353 51.440941-29.394823 71.017412a96.737882 96.737882 0 0 1-71.017412 29.394824c-27.708235 0-51.380706-9.818353-70.957176-29.394824a96.737882 96.737882 0 0 1-29.394824-71.017412zM114.808471 22.588235c0-22.166588 17.950118-40.116706 40.116705-40.116706h321.295059a40.176941 40.176941 0 1 1 0 80.293647H195.102118c0.180706 42.465882 0.843294 71.198118 2.048 86.136471 1.807059 21.564235 5.421176 37.827765 11.083294 48.850824 11.866353 23.250824 29.394824 40.839529 52.645647 52.645647 11.023059 5.662118 27.346824 9.336471 48.790588 11.083294 3.433412 1.385412 30.840471 2.048 82.221177 2.048H493.929412a40.176941 40.176941 0 1 1 0 80.353882H391.890824c-40.176941 0-69.752471-0.783059-88.726589-2.409412-32.045176-2.590118-58.307765-9.035294-78.727529-19.516235a196.005647 196.005647 0 0 1-87.762824-87.762823c-10.420706-20.48-16.926118-46.682353-19.57647-78.72753-1.505882-18.974118-2.288941-55.175529-2.288941-108.784941v-24.094118zM637.168941 211.546353l184.32-184.32c16.865882-16.865882 43.369412-17.950118 59.030588-2.288941s14.697412 42.164706-2.288941 59.151059l-184.32 184.259764c-16.865882 16.986353-43.369412 18.010353-59.030588 2.288941-15.661176-15.661176-14.697412-42.164706 2.288941-59.030588zM821.428706 268.348235l-184.259765-184.32c-16.986353-16.926118-18.010353-43.369412-2.288941-59.030588 15.661176-15.721412 42.164706-14.697412 59.030588 2.288941l184.32 184.32c16.986353 16.865882 18.010353 43.369412 2.349177 59.030588s-42.164706 14.637176-59.151059-2.288941z"  horiz-adv-x="1024" />
      
      <glyph glyph-name="chengyuan" unicode="&#59014;" d="M230.881882 604.882824c0 49.874824 17.648941 92.461176 52.946824 127.698823a174.08 174.08 0 0 0 127.759059 53.007059 174.08 174.08 0 0 0 127.819294-53.007059 174.08 174.08 0 0 0 52.886588-127.698823 174.08 174.08 0 0 0-52.886588-127.819295 174.08 174.08 0 0 0-127.819294-52.886588 174.08 174.08 0 0 0-127.759059 52.886588 174.08 174.08 0 0 0-52.946824 127.819295z m80.353883 0c0-27.708235 9.758118-51.440941 29.394823-71.017412 19.576471-19.576471 43.248941-29.394824 70.957177-29.394824 27.708235 0 51.380706 9.818353 71.017411 29.394824 19.576471 19.576471 29.394824 43.248941 29.394824 70.957176 0 27.708235-9.818353 51.440941-29.394824 71.017412a96.737882 96.737882 0 0 1-71.017411 29.394824c-27.708235 0-51.380706-9.818353-70.957177-29.394824a96.737882 96.737882 0 0 1-29.394823-71.017412zM112.218353 234.194824A196.005647 196.005647 0 0 0 199.981176 321.957647c20.48 10.420706 46.682353 16.926118 78.72753 19.576471 18.974118 1.566118 48.549647 2.288941 88.726588 2.349176h88.365177c53.549176 0 83.124706-0.783059 88.666353-2.409412 32.045176-2.590118 58.307765-9.035294 78.787764-19.516235a196.065882 196.065882 0 0 0 87.702588-87.762823c10.420706-20.48 16.986353-46.682353 19.576471-78.72753 1.566118-18.974118 2.349176-55.175529 2.349177-108.784941v-24.094118a40.176941 40.176941 0 0 0-40.176942-40.116706H130.469647A40.176941 40.176941 0 0 0 90.352941 22.588235v24.094118c0 53.609412 0.722824 89.810824 2.288941 108.784941 2.650353 32.045176 9.155765 58.307765 19.576471 78.72753z m71.559529-36.442353c-5.601882-11.023059-9.336471-27.286588-11.083294-48.790589-1.204706-14.998588-1.867294-43.730824-2.048-86.196706h481.882353a1343.247059 1343.247059 0 0 1-2.048 86.136471c-1.746824 21.564235-5.421176 37.827765-11.083294 48.850824a117.639529 117.639529 0 0 1-52.645647 52.645647c-11.023059 5.662118-27.286588 9.336471-48.790588 11.083294a1142.302118 1142.302118 0 0 1-82.160941 2.048H367.435294c-51.380706 0-78.787765-0.662588-82.160941-2.048-21.504-1.807059-37.827765-5.421176-48.850824-11.083294a117.579294 117.579294 0 0 1-52.645647-52.645647zM905.155765 205.221647a317.801412 317.801412 0 0 1-70.354824 139.264 40.176941 40.176941 0 1 1-60.416-52.946823c25.479529-29.033412 43.008-63.909647 52.645647-104.688942 10.119529-43.008 12.227765-96.075294 6.384941-159.141647a40.237176 40.237176 0 0 1 39.996236-43.851294 40.176941 40.176941 0 0 1 39.996235 36.442353v0.060235c6.625882 71.740235 3.915294 133.360941-8.252235 184.922353zM624.760471 728.244706c0-6.987294 1.807059-13.854118 5.300705-19.937882 22.106353-38.671059 33.129412-74.450824 33.129412-107.218824 0-33.249882-11.203765-70.836706-33.731764-112.880941a40.176941 40.176941 0 0 1 70.836705-37.827765c28.792471 53.790118 43.188706 104.086588 43.188706 150.708706 0 46.983529-14.576941 96.015059-43.730823 147.034353a40.176941 40.176941 0 0 1-74.992941-19.877647z"  horiz-adv-x="1024" />
      
      <glyph glyph-name="zhuanrangxiaozu" unicode="&#59015;" d="M190.765176 504.470588h642.469648c44.393412 0 80.353882 35.960471 80.353882 80.293647v120.470589c0 44.393412-35.960471 80.293647-80.353882 80.293647H190.765176c-44.393412 0-80.353882-35.900235-80.353882-80.293647V46.682353000000035c0-35.538824 28.792471-64.271059 64.271059-64.271059H391.529412a40.176941 40.176941 0 1 1 0 80.293647H217.449412a26.744471 26.744471 0 0 0-26.744471 26.804706V504.470588z m0 80.293647v120.470589h642.469648v-120.470589H190.765176zM885.157647 186.12705900000003a40.176941 40.176941 0 0 1 0 56.801882l-170.345412 170.345412a40.176941 40.176941 0 0 1-56.801882 0l-3.132235-3.493647a40.176941 40.176941 0 0 1 3.132235-53.248l100.592941-100.592941-252.506353-1.204706a40.176941 40.176941 0 1 1 0.301177-80.353883l254.674823 1.264942-103.062588-103.062589a40.176941 40.176941 0 1 1 56.801882-56.801882l170.345412 170.345412z"  horiz-adv-x="1024" />
      
      <glyph glyph-name="a-pindao" unicode="&#59016;" d="M565.549176 129.80705899999998h227.568942c66.499765 0 120.470588 55.597176 120.470588 124.144941V641.385412c0 68.547765-53.970824 124.084706-120.470588 124.084706H230.881882c-66.499765 0-120.470588-55.536941-120.470588-124.084706v-387.433412c0-68.547765 53.970824-124.084706 120.470588-124.084706h47.104l15.36-92.882823c4.698353-28.129882 34.936471-43.128471 59.151059-29.214118l213.052235 122.096941z m-374.784 124.144941V641.385412c0 11.444706 3.915294 21.142588 11.745883 29.214117a38.128941 38.128941 0 0 0 28.370823 12.16753h562.236236c11.083294 0 20.48-4.096 28.370823-12.16753 7.830588-8.071529 11.745882-17.829647 11.745883-29.214117v-387.433412c0-11.444706-3.915294-21.142588-11.745883-29.214118a38.128941 38.128941 0 0 0-28.370823-12.167529H565.549176c-13.673412 0-27.105882-3.614118-39.03247-10.420706l-163.538824-93.665882-5.782588 35.237647c-6.625882 39.755294-40.056471 68.848941-79.209412 68.848941h-47.104a38.128941 38.128941 0 0 0-28.370823 12.167529 40.478118 40.478118 0 0 0-11.745883 29.214118zM486.279529 630.5430590000001a40.176941 40.176941 0 0 1-51.440941-23.973647l-15.540706-42.586353h-47.826823a40.176941 40.176941 0 0 1 0-80.353883h18.672941L360.809412 403.335529h-35.900236a40.176941 40.176941 0 0 1 0-80.293647h6.625883l-6.625883-18.371764a40.176941 40.176941 0 1 1 75.414589-27.467294l16.685176 45.778823h95.352471l-6.686118-18.311529a40.176941 40.176941 0 1 1 75.474824-27.467294l16.685176 45.778823h48.308706a40.176941 40.176941 0 1 1 0 80.353882H627.049412l29.214117 80.293647H692.705882a40.176941 40.176941 0 1 1 0 80.353883h-7.107764l5.421176 15.058823a40.176941 40.176941 0 0 1-75.414588 27.467294l-15.480471-42.526117H504.771765l5.481411 15.058823a40.176941 40.176941 0 0 1-23.973647 51.501177z m-10.721882-146.913883h95.292235l-29.214117-80.293647H446.343529l29.214118 80.293647z"  horiz-adv-x="1024" />
      
      <glyph glyph-name="a-fenxiangzhuanfa" unicode="&#59017;" d="M435.681882 785.588706a40.176941 40.176941 0 0 0 0-80.353882H295.152941c-57.645176 0-104.387765-46.742588-104.387765-104.387765v-433.694118c0-57.645176 46.742588-104.387765 104.387765-104.387765h433.694118c57.645176 0 104.387765 46.742588 104.387765 104.387765V303.706353a40.176941 40.176941 0 0 0 80.353882 0V167.152941a184.741647 184.741647 0 0 0-184.741647-184.741647H295.152941A184.741647 184.741647 0 0 0 110.411294 167.152941V600.847059A184.741647 184.741647 0 0 0 295.152941 785.588706h140.528941zM774.505412 705.234824H632.470588a40.176941 40.176941 0 0 0-39.875764 35.538823L592.293647 745.411765c0 22.166588 18.010353 40.176941 40.176941 40.176941h240.941177c22.166588 0 40.176941-18.010353 40.176941-40.176941v-240.941177a40.176941 40.176941 0 0 0-80.353882 0V650.420706L540.491294 355.689412a40.176941 40.176941 0 1 0-56.982588 56.621176l290.93647 292.924236z"  horiz-adv-x="1024" />
      
      <glyph glyph-name="bianji" unicode="&#59018;" d="M190.765176 79.99247100000002h56.741648l414.177882 414.177882-56.801882 56.741647-414.117648-414.117647v-56.801882zM873.411765-0.361411999999973H170.646588a60.235294 60.235294 0 0 0-60.235294 60.235294v97.701647a30.117647 30.117647 0 0 0 8.854588 21.263059l570.849883 570.849883c15.661176 15.661176 41.080471 15.661176 56.741647 0l113.603764-113.54353c15.661176-15.661176 15.661176-41.140706 0-56.801882l-499.350588-499.350588H873.411765a40.176941 40.176941 0 1 0 0-80.353883zM661.684706 607.713882l56.801882-56.801882 56.801883 56.801882-56.801883 56.801883-56.801882-56.801883z"  horiz-adv-x="1024" />
      
      <glyph glyph-name="shipintonghua" unicode="&#59019;" d="M954.970353 729.750588a45.537882 45.537882 0 0 0 21.564235-16.926117c7.649882-8.854588 11.444706-18.672941 11.444706-29.515295v-195.343058a48.911059 48.911059 0 0 0-6.26447-24.094118 44.754824 44.754824 0 0 0-23.612236-20.781176 49.152 49.152 0 0 0-44.574117 0.963764l-1.626353 0.843294-57.584942 37.76753a77.824 77.824 0 0 0-14.576941-17.950118c-15.480471-14.336-34.334118-21.504-56.380235-21.504H593.136941c-20.841412 0-39.152941 7.047529-54.994823 21.082353-16.865882 15.119059-25.298824 33.129412-25.298824 54.151529V655.36c0 21.082353 7.951059 38.912 23.913412 53.729882 15.540706 14.336 34.334118 21.504 56.380235 21.504h190.223059c20.901647 0 39.213176-7.047529 54.994824-21.082353 7.047529-6.324706 12.649412-13.131294 16.745411-20.48l56.801883 37.345883 1.686588 0.843294a59.632941 59.632941 0 0 0 27.045647 5.963294h7.589647l6.746353-3.433412zM84.690824 631.085176l19.877647 17.468236c18.070588 17.468235 43.128471 26.262588 75.173647 26.262588 33.249882 0 58.669176-9.938824 76.318117-29.936941l76.67953-69.270588c22.467765-18.913882 33.430588-43.369412 32.88847-73.306353a101.797647 101.797647 0 0 0-31.322353-72.523294l-0.722823-0.783059-20.239059-17.709177c0.180706-6.445176 3.553882-15.119059 10.059294-26.081882 12.528941-21.082353 34.334118-45.658353 65.536-73.667765 37.647059-34.454588 70.113882-56.500706 97.400471-66.258823a60.175059 60.175059 0 0 1 22.347294-4.397177 12.709647 12.709647 0 0 1 3.011765 0.481883l19.456 16.986352a109.025882 109.025882 0 0 0 75.89647 29.093648c29.515294 0 54.934588-9.818353 76.318118-29.394824l77.94447-70.475294c22.588235-19.034353 33.912471-43.128471 33.912471-72.402824 0-29.334588-11.384471-53.549176-34.093177-72.583529l-19.998117-17.528471c-51.983059-45.839059-128-53.609412-227.990588-23.371294-92.943059 28.129882-184.982588 82.462118-276.058353 162.936471l-0.481883 0.421647-0.421647 0.481882c-61.259294 58.548706-109.387294 117.639529-144.384 177.152C54.633412 405.925647 36.020706 463.751529 36.020706 515.915294c0 47.585882 16.263529 85.955765 48.670118 115.169882z m508.446117 35.297883a18.010353 18.010353 0 0 1-12.709647-4.457412c-2.228706-2.048-3.312941-4.216471-3.312941-6.565647v-136.914824c0-1.807059 1.264941-3.855059 3.855059-6.204235 3.614118-3.192471 7.649882-4.818824 12.167529-4.818823h190.223059a18.010353 18.010353 0 0 1 12.709647 4.457411c2.228706 2.048 3.373176 4.216471 3.373177 6.565647V655.36c0 1.807059-1.264941 3.855059-3.855059 6.204235a17.829647 17.829647 0 0 1-12.227765 4.818824H593.136941z m340.931765-158.960941V661.925647l-70.415059-44.092235v-64.451765l70.415059-45.959529zM148.419765 601.4494119999999l-20.720941-18.130824c-18.311529-16.444235-27.407059-38.912-27.407059-67.463529 0-40.478118 15.661176-87.341176 46.923294-140.649412 31.924706-54.211765 76.197647-108.483765 132.879059-162.816 83.907765-74.089412 167.815529-123.843765 251.663058-149.202823 77.161412-23.371294 132.879059-19.937882 167.032471 10.24l20.600471 18.010352 0.301176 0.240942a29.334588 29.334588 0 0 1 11.264 23.491764 29.334588 29.334588 0 0 1-11.264 23.491765l-0.481882 0.421647-79.269647 71.619765a46.863059 46.863059 0 0 1-32.828236 12.468706 46.863059 46.863059 0 0 1-32.828235-12.468706l-0.301176-0.240941-20.540236-18.070589c-21.263059-18.552471-50.838588-21.082353-88.666353-7.649882-35.418353 12.649412-75.053176 38.972235-118.844235 79.028706-64.572235 58.127059-96.858353 107.459765-96.858353 148.178823 0 21.202824 7.469176 37.225412 22.40753 48.067765l18.070588 15.841883a39.634824 39.634824 0 0 1 11.806117 27.587764 28.069647 28.069647 0 0 1-10.24 23.250824l-0.542117 0.421647-80.77553 73.005176-1.445647 1.746824c-4.818824 5.782588-14.456471 8.673882-28.611764 8.673882-14.817882 0-24.997647-2.770824-30.539294-8.31247l-0.783059-0.783059z"  horiz-adv-x="1024" />
      
      <glyph glyph-name="huiyi" unicode="&#59020;" d="M158.599529 753.423059h514.048c35.478588 0 64.210824-28.732235 64.210824-64.210824v-97.159529l104.026353 41.441882a64.271059 64.271059 0 0 0 87.943529-55.41647l0.120471-4.096 0.421647-218.895059a64.271059 64.271059 0 0 0-84.088471-61.259294l-3.794823 1.385411-104.628706 41.502118V239.435294c0-35.538824-28.732235-64.271059-64.210824-64.271059H588.077176l65.054118-130.16847a32.105412 32.105412 0 0 0-56.199529-30.960941l-1.204706 2.228705-79.510588 158.900706H315.030588l-79.510588-158.900706a32.105412 32.105412 0 0 0-58.428235 26.443295l0.963764 2.288941 65.114353 130.16847H158.599529c-35.478588 0-64.210824 28.792471-64.210823 64.271059V689.212235c0 35.478588 28.732235 64.210824 64.210823 64.210824z m514.048-210.944a31.924706 31.924706 0 0 0 0 4.21647V689.152H158.599529V239.435294h514.048V542.479059z m192.030118 31.322353l-127.819294-50.959059v-117.037177l128.301176-50.838588-0.481882 218.834824zM512 335.872v32.045176H222.870588V335.811765c0-17.709176 14.396235-32.105412 32.105412-32.105412h224.918588A32.105412 32.105412 0 0 1 512 335.811765z"  horiz-adv-x="1024" />
      
      <glyph glyph-name="tianjia-bg" unicode="&#59021;" d="M512-37.647059a421.647059 421.647059 0 1 1 0 843.294118 421.647059 421.647059 0 0 1 0-843.294118zM471.823059 424.176941V564.705882a40.176941 40.176941 0 1 0 80.353882 0v-140.528941H692.705882a40.176941 40.176941 0 0 0 0-80.293647H552.176941V203.294118a40.176941 40.176941 0 1 0-80.293647 0V343.883294H331.294118a40.176941 40.176941 0 0 0 0 80.293647h140.528941z"  horiz-adv-x="1024" />
      
      <glyph glyph-name="a-sousuo" unicode="&#59022;" d="M683.489882 155.70823499999995a329.607529 329.607529 0 0 0-412.310588 4.939294 325.933176 325.933176 0 0 0-65.054118 71.68 327.740235 327.740235 0 0 0-49.212235 118.904471 329.246118 329.246118 0 0 0 32.64753 219.858824 329.487059 329.487059 0 0 0 258.529882 172.754823 328.764235 328.764235 0 0 0 173.357176-30.117647 330.691765 330.691765 0 0 0 149.865412-142.637176 324.969412 324.969412 0 0 0 29.033412-75.354353 336.594824 336.594824 0 0 0 9.878588-80.112942 329.125647 329.125647 0 0 0-69.872941-203.113411l121.313882-121.374118a40.176941 40.176941 0 1 0-56.801882-56.801882l-121.374118 121.374117z m46.441412 259.855059a251.482353 251.482353 0 0 1-18.974118 95.533177 252.385882 252.385882 0 0 1-45.658352 72.041411 244.434824 244.434824 0 0 1-46.260706 39.936 249.554824 249.554824 0 1 1 110.893176-207.510588zM605.244235 557.4776469999999a176.007529 176.007529 0 0 1-124.807529 51.681882c-47.405176 0-91.919059-18.853647-124.80753-51.681882a40.176941 40.176941 0 1 1 56.801883-56.801882c17.950118 17.950118 42.104471 28.190118 68.005647 28.190117 25.901176 0 49.995294-10.24 68.005647-28.190117a40.176941 40.176941 0 1 1 56.741647 56.801882z"  horiz-adv-x="1024" />
      
      <glyph glyph-name="yonghu" unicode="&#59023;" d="M414.780235 381.349647c-53.187765-9.095529-173.839059-57.584941-229.737411-117.458823-64.572235-63.608471-69.872941-173.658353-69.872942-211.84753 0-91.316706 148.178824-90.714353 339.727059-89.871059a12578.936471 12578.936471 0 0 0 114.206118 0c191.186824-0.843294 337.257412-1.445647 337.257412 89.871059 0.120471 40.297412-2.831059 148.239059-77.101177 216.485647-46.200471 55.235765-166.490353 106.616471-222.750118 114.145883C602.352941 384 543.503059 390.204235 512 390.023529c-31.503059-0.180706-90.352941-6.023529-97.219765-8.673882z m-79.510588-112.278588c37.948235 17.950118 68.969412 28.973176 93.123765 33.129412l7.830588 1.325176 1.024 0.421647 1.746824 0.240941c6.144 0.783059 13.673412 1.626353 22.588235 2.409412 21.202824 2.048 38.189176 3.011765 50.838588 3.132235a851.968 851.968 0 0 0 75.535059-5.421176l0.903529-0.301177 6.987294-0.903529c22.889412-3.072 53.127529-13.733647 90.955295-31.924706 39.755294-19.275294 66.740706-37.285647 80.896-54.211765l3.373176-4.035764 3.855059-3.553883c33.008941-30.358588 49.995294-80.112941 51.079529-149.504a148.781176 148.781176 0 0 0-31.141647-8.372706c-35.358118-6.505412-110.471529-9.517176-225.40047-9.035294a14528.391529 14528.391529 0 0 1-114.928942 0c-115.531294-0.481882-191.126588 2.529882-226.906353 9.035294a151.431529 151.431529 0 0 0-32.045176 8.613648c0.542118 24.576 3.373176 47.947294 8.553412 70.113882 8.011294 34.334118 20.48 59.873882 37.285647 76.498823l1.204706 1.144471 1.084235 1.204706c18.552471 19.877647 49.091765 39.875765 91.557647 59.994353zM510.795294 423.755294a188.416 188.416 0 1 1 0 376.892235 188.416 188.416 0 0 1 0-376.832z m76.438588 264.914824c21.082353-21.082353 31.623529-46.561882 31.62353-76.438589 0-29.876706-10.541176-55.356235-31.62353-76.438588a104.207059 104.207059 0 0 0-76.498823-31.683765 104.207059 104.207059 0 0 0-76.378353 31.683765 104.207059 104.207059 0 0 0-31.683765 76.498824c0 29.816471 10.541176 55.296 31.683765 76.378353a104.207059 104.207059 0 0 0 76.438588 31.683764c29.816471 0 55.296-10.541176 76.438588-31.683764z"  horiz-adv-x="1024" />
      
      <glyph glyph-name="wenti" unicode="&#59024;" d="M233.110588-17.588706000000002a80.293647 80.293647 0 0 0-80.353882 80.353882V705.234824c0 44.393412 35.960471 80.353882 80.293647 80.353882h425.080471c10.661647 0 20.901647-4.216471 28.431058-11.806118L863.774118 596.630588a40.116706 40.116706 0 0 0 11.745882-28.431059v-505.374117c0-44.393412-35.960471-80.353882-80.293647-80.353883H233.050353z m501.940706 80.353882a60.235294 60.235294 0 0 1 60.235294 60.235295v403.57647a60.235294 60.235294 0 0 1-17.648941 42.586353L659.154824 687.585882a60.235294 60.235294 0 0 1-42.586353 17.648942H293.345882a60.235294 60.235294 0 0 1-60.235294-60.235295v-521.999058a60.235294 60.235294 0 0 1 60.235294-60.235295h441.765647zM375.506824 476.762353c-4.457412-27.166118 4.758588-44.574118 27.587764-51.983059 22.768941-7.469176 39.875765 4.638118 51.2 36.261647a60.235294 60.235294 0 1 0 59.030588-72.041412 40.176941 40.176941 0 0 1-40.116705-40.176941v-60.235294c0-29.033412 13.372235-43.550118 40.116705-43.550118 26.804706 0 40.176941 14.516706 40.176942 43.550118v25.901177A140.589176 140.589176 0 1 1 375.506824 476.762353z m97.701647-300.574118a40.176941 40.176941 0 1 1 80.293647 0 40.176941 40.176941 0 0 1-80.293647 0z"  horiz-adv-x="1024" />
      
      <glyph glyph-name="a-jietu" unicode="&#59025;" d="M813.176471 414.117647V655.058824a38.731294 38.731294 0 0 1-11.745883 28.370823 38.671059 38.671059 0 0 1-28.431059 11.806118H251.000471a38.671059 38.671059 0 0 1-28.431059-11.806118A38.671059 38.671059 0 0 1 210.823529 655.058824v-240.941177a40.176941 40.176941 0 1 0-80.293647 0V655.058824c0 33.249882 11.745882 61.680941 35.237647 85.172705 23.552 23.491765 51.922824 35.297882 85.232942 35.297883h521.999058c33.310118 0 61.680941-11.745882 85.232942-35.297883 23.491765-23.491765 35.237647-51.922824 35.237647-85.172705v-240.941177A40.176941 40.176941 0 0 0 813.176471 414.117647zM611.267765 246.12141199999996L512 345.44941200000005l-99.267765-99.267765a160.647529 160.647529 0 1 0-67.343059 46.260706l109.808942 109.808941-75.414589 75.414588a80.293647 80.293647 0 0 0 0 113.603765L512 458.992941l132.216471 132.216471c31.322353-31.322353 31.322353-82.221176 0-113.603765L568.801882 402.191059l109.748706-109.808941a160.647529 160.647529 0 1 0-67.343059-46.260706zM371.471059 141.25176499999998c0 22.166588-7.830588 41.080471-23.491765 56.741647-15.721412 15.661176-34.635294 23.491765-56.862118 23.491764-22.166588 0-41.080471-7.830588-56.741647-23.491764-15.661176-15.661176-23.552-34.575059-23.552-56.741647 0-22.226824 7.830588-41.140706 23.491765-56.801883 15.661176-15.661176 34.635294-23.491765 56.801882-23.491764 22.226824 0 41.140706 7.830588 56.801883 23.491764 15.661176 15.661176 23.491765 34.575059 23.491765 56.801883z m418.213647 56.741647c-15.661176 15.661176-34.635294 23.491765-56.801882 23.491764s-41.140706-7.830588-56.801883-23.491764c-15.661176-15.661176-23.491765-34.575059-23.491765-56.741647 0-22.226824 7.830588-41.140706 23.491765-56.801883 15.661176-15.661176 34.635294-23.491765 56.801883-23.491764s41.080471 7.830588 56.801882 23.491764c15.661176 15.661176 23.491765 34.575059 23.491765 56.801883 0 22.166588-7.830588 41.080471-23.491765 56.741647z"  horiz-adv-x="1024" />
      
      <glyph glyph-name="baocun" unicode="&#59026;" d="M110.411294 93.063529V675.358118c0 44.333176 35.960471 80.293647 80.353882 80.293647h642.469648c44.393412 0 80.353882-35.960471 80.353882-80.293647v-582.294589c0-44.333176-35.960471-80.293647-80.353882-80.293647H190.765176a80.293647 80.293647 0 0 0-80.353882 80.293647z m140.589177 0h521.999058a60.235294 60.235294 0 0 1 60.235295 60.235295V615.122824a60.235294 60.235294 0 0 1-60.235295 60.235294H251.000471a60.235294 60.235294 0 0 1-60.235295-60.235294v-461.824a60.235294 60.235294 0 0 1 60.235295-60.235295zM793.118118 755.651765v-200.764236c0-33.310118-11.806118-61.680941-35.297883-85.232941-23.491765-23.491765-51.922824-35.237647-85.172706-35.237647H351.352471a116.073412 116.073412 0 0 0-85.172706 35.237647 116.073412 116.073412 0 0 0-35.297883 85.232941V755.651765h562.236236z m-80.353883-200.764236v120.470589H311.235765v-120.470589c0-11.083294 3.915294-20.600471 11.745882-28.431058 7.830588-7.830588 17.287529-11.745882 28.370824-11.745883h321.295058a38.671059 38.671059 0 0 1 28.370824 11.745883 38.671059 38.671059 0 0 1 11.745882 28.431058zM672.647529 595.004235a40.176941 40.176941 0 1 1-80.353882 0 40.176941 40.176941 0 0 1 80.353882 0z"  horiz-adv-x="1024" />
      
      <glyph glyph-name="yinyong" unicode="&#59027;" d="M565.549176 129.807059h227.568942c66.499765 0 120.470588 55.597176 120.470588 124.144941V641.385412c0 68.547765-53.970824 124.084706-120.470588 124.084706H230.881882c-66.499765 0-120.470588-55.536941-120.470588-124.084706v-387.433412c0-68.547765 53.970824-124.084706 120.470588-124.084706h47.104l15.36-92.882823c4.638118-28.129882 34.936471-43.068235 59.090824-29.214118L565.609412 129.807059z m-374.784 124.144941V641.385412c0 11.444706 3.915294 21.142588 11.745883 29.214117a38.128941 38.128941 0 0 0 28.370823 12.16753h562.236236c11.083294 0 20.48-4.035765 28.370823-12.16753 7.830588-8.071529 11.745882-17.829647 11.745883-29.214117v-387.433412c0-11.444706-3.915294-21.142588-11.745883-29.214118a38.128941 38.128941 0 0 0-28.370823-12.107294H565.549176c-13.673412 0-27.105882-3.614118-39.03247-10.480941l-163.538824-93.665882-5.782588 35.237647c-6.625882 39.755294-40.056471 68.848941-79.209412 68.848941h-47.104a38.128941 38.128941 0 0 0-28.370823 12.167529 40.478118 40.478118 0 0 0-11.745883 29.214118zM490.977882 402.552471V504.470588a54.211765 54.211765 0 0 1-16.444235 39.755294 54.211765 54.211765 0 0 1-39.755294 16.444236H391.529412a54.211765 54.211765 0 0 1-39.755294-16.444236 54.211765 54.211765 0 0 1-16.444236-39.755294v-43.248941a54.211765 54.211765 0 0 1 16.444236-39.755294 54.211765 54.211765 0 0 1 39.755294-16.444235h30.238117v-2.469647c0-11.083294-4.758588-21.504-14.336-31.201883a52.224 52.224 0 0 0-14.998588-10.721882 55.416471 55.416471 0 0 0-12.649412-3.614118 35.84 35.84 0 0 1-22.708705-13.914353 36.261647 36.261647 0 0 1-7.529412-22.64847c0.060235-9.035294 3.011765-16.564706 8.734117-22.768941a31.322353 31.322353 0 0 1 25.539765-9.818353 86.016 86.016 0 0 1 13.733647 1.566117c6.746353 1.204706 13.251765 2.951529 19.576471 5.300706 15.661176 5.722353 29.274353 14.456471 40.96 26.202353a111.435294 111.435294 0 0 1 32.88847 81.618824z m200.824471 0V504.470588a54.211765 54.211765 0 0 1-16.504471 39.755294 54.211765 54.211765 0 0 1-39.755294 16.444236h-43.248941a54.211765 54.211765 0 0 1-39.755294-16.444236 54.211765 54.211765 0 0 1-16.444235-39.755294v-43.248941a54.211765 54.211765 0 0 1 16.444235-39.755294 54.211765 54.211765 0 0 1 39.755294-16.444235h30.298353v-2.469647c0-11.083294-4.818824-21.504-14.396235-31.201883a52.224 52.224 0 0 0-14.938353-10.721882 55.416471 55.416471 0 0 0-12.649412-3.614118 35.84 35.84 0 0 1-22.768941-13.914353 36.261647 36.261647 0 0 1-7.469177-22.64847c0-9.035294 2.951529-16.564706 8.734118-22.768941a31.322353 31.322353 0 0 1 25.539765-9.818353 86.136471 86.136471 0 0 1 13.673411 1.566117 110.531765 110.531765 0 0 1 60.536471 31.503059 111.435294 111.435294 0 0 1 32.888471 81.618824z"  horiz-adv-x="1024" />
      
      <glyph glyph-name="shanchu" unicode="&#59028;" d="M190.765176 624.941176a40.056471 40.056471 0 0 1-33.430588-62.464 40.056471 40.056471 0 0 1 33.430588-17.829647h40.116706v-441.765647a120.470588 120.470588 0 0 1 120.470589-120.470588h321.295058a120.470588 120.470588 0 0 1 120.470589 120.470588V544.6475290000001h40.116706a40.056471 40.056471 0 0 1 33.430588 62.464 39.755294 39.755294 0 0 1-33.430588 17.829647H190.765176z m521.999059-80.293647v-441.765647a40.176941 40.176941 0 0 0-40.116706-40.116706H351.352471l-4.638118 0.240942a40.176941 40.176941 0 0 0-35.538824 39.875764V544.6475290000001h401.588706zM471.823059 424.176941a40.176941 40.176941 0 1 1-80.293647 0v-240.941176a40.176941 40.176941 0 1 1 80.293647 0v240.941176zM632.470588 424.176941a40.176941 40.176941 0 0 1-80.293647 0v-240.941176a40.176941 40.176941 0 1 1 80.293647 0v240.941176zM512 785.588706a200.764235 200.764235 0 0 0 200.764235-200.824471H632.470588a120.470588 120.470588 0 0 1-240.941176 0H311.235765A200.764235 200.764235 0 0 0 512 785.588706z"  horiz-adv-x="1024" />
      
      <glyph glyph-name="jianshaochengyuan" unicode="&#59029;" d="M230.881882 604.882824c0 49.874824 17.648941 92.461176 52.946824 127.698823a174.08 174.08 0 0 0 127.759059 53.007059 174.08 174.08 0 0 0 127.819294-53.007059 174.08 174.08 0 0 0 52.886588-127.698823 174.08 174.08 0 0 0-52.886588-127.819295 174.08 174.08 0 0 0-127.819294-52.886588 174.08 174.08 0 0 0-127.759059 52.886588 174.08 174.08 0 0 0-52.946824 127.819295z m80.353883 0c0-27.708235 9.758118-51.440941 29.394823-71.017412 19.576471-19.576471 43.248941-29.394824 70.957177-29.394824 27.708235 0 51.380706 9.818353 71.017411 29.394824 19.576471 19.576471 29.394824 43.248941 29.394824 70.957176 0 27.708235-9.818353 51.440941-29.394824 71.017412a96.737882 96.737882 0 0 1-71.017411 29.394824c-27.708235 0-51.380706-9.818353-70.957177-29.394824a96.737882 96.737882 0 0 1-29.394823-71.017412zM632.470588 123.000471h240.941177a40.176941 40.176941 0 1 1 0 80.293647h-240.941177a40.176941 40.176941 0 0 1 0-80.293647zM110.411294 22.588235c0-22.166588 18.010353-40.116706 40.176941-40.116706h321.234824a40.176941 40.176941 0 1 1 0 80.293647H190.765176a1343.247059 1343.247059 0 0 0 2.048 86.136471c1.746824 21.564235 5.421176 37.827765 11.083295 48.850824 11.806118 23.250824 29.394824 40.839529 52.645647 52.645647 11.023059 5.662118 27.286588 9.336471 48.790588 11.083294 3.433412 1.385412 30.840471 2.048 82.221176 2.048h102.038589a40.176941 40.176941 0 1 1 0 80.353882H387.553882c-40.237176 0-69.812706-0.783059-88.726588-2.409412-32.045176-2.590118-58.307765-9.035294-78.787765-19.516235a196.005647 196.005647 0 0 1-87.702588-87.762823c-10.420706-20.48-16.986353-46.682353-19.57647-78.72753-1.566118-18.974118-2.349176-55.175529-2.349177-108.784941v-24.094118z"  horiz-adv-x="1024" />
      
      <glyph glyph-name="niantie" unicode="&#59030;" d="M752.941176 544.647529c0 44.333176-35.960471 80.293647-80.293647 80.293647h-481.882353c-44.393412 0-80.353882-35.960471-80.353882-80.293647v-481.882353c0-44.393412 35.960471-80.353882 80.353882-80.353882h481.882353c44.333176 0 80.293647 35.960471 80.293647 80.353882v481.882353z m-562.176 0h481.882353v-481.882353h-481.882353v481.882353zM793.118118 785.588706a120.470588 120.470588 0 0 0 120.470588-120.470588v-441.765647a40.176941 40.176941 0 1 0-80.353882 0V665.118118a40.176941 40.176941 0 0 1-40.116706 40.116706H351.352471a40.176941 40.176941 0 1 0 0 80.353882h441.765647zM271.058824 384c0-22.166588 17.950118-40.176941 40.176941-40.176941h240.941176a40.176941 40.176941 0 1 1 0 80.353882h-240.941176A40.176941 40.176941 0 0 1 271.058824 384zM271.058824 223.352471c0-22.166588 17.950118-40.116706 40.176941-40.116706h240.941176a40.176941 40.176941 0 1 1 0 80.293647h-240.941176a40.176941 40.176941 0 0 1-40.176941-40.176941z"  horiz-adv-x="1024" />
      
    </font>
</defs>
</svg>
